<svg xmlns="http://www.w3.org/2000/svg" viewBox="0 0 512 512">
  <defs>
    <linearGradient id="bg" x1="0" y1="0" x2="1" y2="1">
      <stop offset="0%" stop-color="#0e1b26"/>
      <stop offset="100%" stop-color="#14324a"/>
    </linearGradient>
    <linearGradient id="bubble" x1="0" y1="0" x2="0.5" y2="1">
      <stop offset="0%" stop-color="#f6c37f"/>
      <stop offset="100%" stop-color="#e8a84c"/>
    </linearGradient>
    <linearGradient id="sparkle" x1="0" y1="0" x2="1" y2="1">
      <stop offset="0%" stop-color="#4edbcd"/>
      <stop offset="100%" stop-color="#36aca1"/>
    </linearGradient>
  </defs>
  <!-- Background -->
  <rect width="512" height="512" rx="112" fill="url(#bg)"/>
  <!-- Chat bubble -->
  <path d="M128 150 C128 112, 160 80, 200 80 L360 80 C400 80, 432 112, 432 150 L432 280 C432 318, 400 350, 360 350 L220 350 L160 410 L176 350 L152 350 C140 350, 128 338, 128 318 Z" fill="url(#bubble)" opacity="0.92"/>
  <!-- Chat lines -->
  <rect x="176" y="148" width="200" height="16" rx="8" fill="#0e1b26" opacity="0.2"/>
  <rect x="176" y="188" width="152" height="16" rx="8" fill="#0e1b26" opacity="0.15"/>
  <rect x="176" y="228" width="180" height="16" rx="8" fill="#0e1b26" opacity="0.12"/>
  <!-- AI sparkle (4-point star) -->
  <path d="M390 100 L400 130 L410 100 L400 70 Z" fill="url(#sparkle)"/>
  <path d="M370 100 L400 110 L430 100 L400 90 Z" fill="url(#sparkle)"/>
  <!-- Small sparkle -->
  <path d="M120 320 L126 336 L132 320 L126 304 Z" fill="#4edbcd" opacity="0.6"/>
  <path d="M112 320 L126 326 L140 320 L126 314 Z" fill="#4edbcd" opacity="0.6"/>
  <!-- Accent dots -->
  <circle cx="100" cy="120" r="8" fill="#f6c37f" opacity="0.3"/>
  <circle cx="440" cy="400" r="12" fill="#4edbcd" opacity="0.25"/>
  <circle cx="80" cy="400" r="6" fill="#f6c37f" opacity="0.2"/>
</svg>
