<svg xmlns="http://www.w3.org/2000/svg" viewBox="0 0 512 512" aria-label="TimeEdit">
  <rect width="512" height="512" rx="64" fill="#1a1a2e"/>
  <!-- Calendar body -->
  <rect x="96" y="128" width="320" height="288" rx="24" fill="#16213e" stroke="#60a5fa" stroke-width="4"/>
  <!-- Calendar header bar -->
  <rect x="96" y="128" width="320" height="72" rx="24" fill="#60a5fa"/>
  <rect x="96" y="176" width="320" height="24" fill="#60a5fa"/>
  <!-- Calendar rings -->
  <rect x="176" y="108" width="16" height="48" rx="8" fill="#e0e7ff"/>
  <rect x="320" y="108" width="16" height="48" rx="8" fill="#e0e7ff"/>
  <!-- Clock circle -->
  <circle cx="320" cy="336" r="72" fill="#1a1a2e" stroke="#60a5fa" stroke-width="4"/>
  <circle cx="320" cy="336" r="4" fill="#f5f5f5"/>
  <!-- Clock hands -->
  <line x1="320" y1="336" x2="320" y2="284" stroke="#f5f5f5" stroke-width="4" stroke-linecap="round"/>
  <line x1="320" y1="336" x2="356" y2="336" stroke="#60a5fa" stroke-width="3" stroke-linecap="round"/>
  <!-- Schedule lines -->
  <rect x="128" y="224" width="120" height="12" rx="6" fill="#60a5fa" opacity="0.6"/>
  <rect x="128" y="256" width="96" height="12" rx="6" fill="#60a5fa" opacity="0.4"/>
  <rect x="128" y="288" width="108" height="12" rx="6" fill="#60a5fa" opacity="0.5"/>
  <rect x="128" y="320" width="80" height="12" rx="6" fill="#60a5fa" opacity="0.3"/>
  <rect x="128" y="352" width="100" height="12" rx="6" fill="#60a5fa" opacity="0.45"/>
  <!-- TE text -->
  <text x="256" y="480" text-anchor="middle" fill="#60a5fa" font-family="system-ui,sans-serif" font-size="36" font-weight="700" opacity="0.7">TimeEdit</text>
</svg>
